HIERARCHY
ROOT Hips
{
	OFFSET 0.000000 0.000000 0.000000 
	CHANNELS 6 Xposition Yposition Zposition Yrotation Zrotation Xrotation 
	JOINT Lumbar
	{
		OFFSET 0.000000 0.000000 0.000000 
		CHANNELS 3 Zrotation Xrotation Yrotation
		JOINT Neck
		{
			OFFSET 0.000000 0.445665 0.000000 
			CHANNELS 3 Zrotation Xrotation Yrotation
			End Site
			{
				OFFSET 0.000000 0.227535 0.000000 
			}
		}
		JOINT RightShoulder
		{
			OFFSET 0.019635 0.377685 0.194865 
			CHANNELS 3 Zrotation Xrotation Yrotation
			JOINT RightElbow
			{
				OFFSET 0.000000 -0.243375 0.000000 
				CHANNELS 2 Zrotation Yrotation
				JOINT RightWrist
				{
					OFFSET 0.000000 -0.264825 0.000000 
					CHANNELS 2 Zrotation Xrotation
					End Site
					{
						OFFSET 0.006600 -0.176220 0.000990 
					}
				}
			}
		}
		JOINT LeftShoulder
		{
			OFFSET 0.019635 0.377685 -0.194865 
			CHANNELS 3 Zrotation Xrotation Yrotation
			JOINT LeftElbow
			{
				OFFSET 0.000000 -0.243375 0.000000 
				CHANNELS 2 Zrotation Yrotation
				JOINT LeftWrist
				{
					OFFSET 0.000000 -0.264825 0.000000 
					CHANNELS 2 Zrotation Xrotation
					End Site
					{
						OFFSET 0.006600 -0.176220 -0.000990 
					}
				}
			}
		}
	}
	JOINT RightHip
	{
		OFFSET 0.052140 -0.069960 0.075570 
		CHANNELS 3 Zrotation Xrotation Yrotation
		JOINT RightKnee
		{
			OFFSET 0.000000 -0.402270 0.000000 
			CHANNELS 1 Zrotation
			JOINT RightAnkle
			{
				OFFSET 0.000000 -0.404085 0.000000 
				CHANNELS 3 Zrotation Xrotation Yrotation
				End Site
				{
					OFFSET 0.204105 -0.089430 0.008415 
				}
			}
		}
	}
	JOINT LeftHip
	{
		OFFSET 0.052140 -0.069960 -0.075570 
		CHANNELS 3 Zrotation Xrotation Yrotation
		JOINT LeftKnee
		{
			OFFSET 0.000000 -0.402270 0.000000 
			CHANNELS 1 Zrotation
			JOINT LeftAnkle
			{
				OFFSET 0.000000 -0.404085 0.000000 
				CHANNELS 3 Zrotation Xrotation Yrotation
				End Site
				{
					OFFSET 0.204105 -0.089430 -0.008415 
				}
			}
		}
	}
}
MOTION
Frames: 17
Frame Time: 0.02
-3.03002 0.9743 0.08752 519.63423 0 -11.03558 -11.23376 -6.90866 9.24861 -70.01311 10.127 -14.35562 64.84144 -5.79533 8.08576 13.52592 81.62552 -1.27078 -7.83426 77.03557 35.66154 -9.75296 18.21522 -94.41707 -10.00699 7.57958 3.48307 6.29662 15.56591 -9.58039 -17.47942 -1.94156 -3.51696 -2.48569 6.71573 20.43649 -0.85175 -7.49303 1.92947 0.01316
-3.02648 0.97454 0.08764 519.57099 0 -11.1888 -11.5813 -7.07349 5.57431 -69.90577 6.20265 -12.92468 64.55503 -5.56947 8.21163 13.39279 81.72969 -1.1989 -7.68241 77.01661 35.83649 -9.81345 18.08244 -94.0306 -9.86189 7.59778 3.06017 6.05725 13.97817 -9.42805 -16.96302 -1.94342 -4.79016 -2.43355 6.8838 19.56031 -0.57554 -7.77434 2.0577 0.99023
-3.02253 0.97483 0.08753 519.43889 0 -11.33278 -11.96043 -7.28091 1.83495 -69.80651 1.96508 -11.40037 64.34285 -5.2153 8.45647 13.2392 81.83621 -1.08458 -7.52283 77.1156 36.07288 -9.95542 17.96084 -93.59052 -9.73712 7.66202 2.90986 5.85112 11.04658 -9.914 -16.46214 -1.90823 -6.54978 -2.38107 7.06228 18.35932 -0.28097 -8.106 2.24558 2.30081
-3.01875 0.97508 0.08752 519.34406 0 -11.48017 -12.3269 -7.46858 -1.76915 -69.70487 -2.02012 -9.96104 64.10685 -4.92246 8.67239 13.10144 81.93445 -0.9862 -7.37101 77.14301 36.28309 -10.02902 17.83416 -93.18168 -9.60713 7.69989 2.64461 5.63152 8.78889 -10.13395 -15.95655 -1.89245 -8.04959 -2.32896 7.23452 17.3852 0.00949 -8.41293 2.39672 3.37891
-3.01505 0.97538 0.08754 519.22635 0 -11.63056 -12.68881 -7.65866 -5.83661 -69.59649 -6.48441 -8.3306 63.82533 -4.62231 8.78423 12.93539 82.06326 -0.90026 -7.19894 77.23889 36.4788 -10.23287 17.70745 -92.74663 -9.46048 7.76019 2.33629 5.39677 6.24798 -10.24145 -15.43555 -1.86628 -9.72554 -2.27639 7.41194 16.08433 0.28446 -8.72779 2.58827 4.7903
-3.01109 0.9756 0.08743 519.14098 0 -11.77232 -13.06707 -7.85337 -8.95385 -69.505 -10.02443 -7.07824 63.65849 -4.30533 9.13821 12.82425 82.12948 -0.78042 -7.06906 77.22447 36.72116 -10.18583 17.5823 -92.35159 -9.35218 7.78464 2.18338 5.20622 3.98787 -10.73848 -14.95273 -1.85281 -11.1434 -2.22424 7.58164 15.37627 0.59483 -9.03893 2.7095 5.59511
-3.00655 0.97561 0.08704 519.13726 0 -11.89595 -13.47782 -8.05282 -9.35626 -69.45271 -10.8761 -6.92122 63.78073 -3.96627 10.15819 12.86245 82.0156 -0.5595 -7.04585 76.8591 37.08943 -9.42277 17.47308 -92.09002 -9.35823 7.70194 2.40757 5.10995 2.78311 -12.1639 -14.56813 -1.883 -11.75375 -2.17663 7.72574 16.47929 1.00147 -9.31627 2.62806 4.57852
-3.00177 0.97555 0.08651 519.17212 0 -12.01045 -13.90387 -8.25498 -8.81102 -69.41832 -10.7957 -7.14509 64.01846 -3.61463 11.41312 12.95785 81.83999 -0.30919 -7.06769 76.38298 37.50208 -8.4054 17.36254 -91.86869 -9.39987 7.58096 2.77772 5.06157 1.91601 -13.9614 -14.2228 -1.92725 -12.08201 -2.12861 7.86208 18.17279 1.4418 -9.58975 2.47341 2.95238
-2.99709 0.97552 0.086 519.20503 0 -12.12728 -14.32643 -8.45423 -8.74497 -69.37933 -11.17731 -7.17726 64.20926 -3.27317 12.54279 13.03197 81.69668 -0.08417 -7.0768 75.96959 37.88682 -7.50668 17.24343 -91.6219 -9.41649 7.47583 3.0714 5.00509 0.93085 -15.58153 -13.86246 -1.96527 -12.52154 -2.07882 8.00344 19.53373 1.86495 -9.8726 2.34753 1.64816
-2.99242 0.9755 0.08564 519.17085 0 -12.25238 -14.73782 -8.66192 -8.47548 -69.32543 -11.40525 -7.28243 64.3771 -2.91067 13.75346 13.08596 81.53472 0.19237 -7.05308 75.50694 38.30362 -6.59718 17.16349 -91.40255 -9.47092 7.37952 3.41411 4.89205 -0.24194 -17.24979 -13.49053 -2.00131 -13.04793 -2.03808 8.13937 21.15353 2.29843 -10.12643 2.24003 0.16604
-2.98767 0.97545 0.08495 519.28518 0 -12.35707 -15.17281 -8.85229 -8.40538 -69.30702 -11.73123 -7.32984 64.62178 -2.5879 14.85113 13.19512 81.39793 0.36846 -7.10837 75.12022 38.66668 -5.64944 17.00141 -91.13756 -9.45507 7.25424 3.6898 4.9077 -0.93737 -18.90905 -13.15195 -2.04534 -13.32224 -1.97743 8.28397 22.37972 2.71593 -10.43745 2.07947 -1.09475
-2.98275 0.97538 0.08341 519.81133 0 -12.41657 -15.69278 -8.99236 -9.09846 -69.3794 -12.52008 -7.10381 65.02749 -2.40303 15.5649 13.44799 81.33693 0.25605 -7.37259 74.95971 38.84115 -4.65189 16.61415 -90.72525 -9.23412 7.06609 3.70776 5.2672 -0.29086 -20.34787 -12.89526 -2.10749 -12.94586 -1.8702 8.45932 22.36674 3.09998 -10.9214 1.76025 -1.59611
-2.97775 0.97528 0.08154 520.48391 0 -12.45371 -16.23083 -9.11506 -10.02548 -69.48712 -13.4423 -6.81106 65.50966 -2.25528 16.1581 13.75357 81.30489 0.04209 -7.71449 74.88041 38.96424 -3.62575 16.14426 -90.26753 -8.94162 6.84865 3.65733 5.75388 0.8135 -21.77665 -12.67057 -2.17737 -12.3262 -1.7415 8.64212 21.94039 3.46323 -11.46024 1.39503 -1.85538
-2.97278 0.97517 0.07979 521.08235 0 -12.49593 -16.7457 -9.24662 -10.86098 -69.5808 -14.32862 -6.56277 65.97248 -2.07373 16.81636 14.03153 81.26552 -0.12307 -8.01973 74.77082 39.13102 -2.61616 15.71097 -89.83896 -8.68323 6.63898 3.66292 6.18267 1.64253 -23.28112 -12.4319 -2.2443 -11.83253 -1.61706 8.81899 21.70999 3.82338 -11.96438 1.07084 -2.2264
-2.96783 0.97514 0.07814 521.71388 0 -12.56139 -17.32662 -9.37406 -11.61178 -69.66757 -15.08874 -6.26737 66.37764 -1.96001 17.44292 14.32669 81.1999 -0.29855 -8.33232 74.63127 39.21745 -1.5815 15.28057 -89.37779 -8.41912 6.45042 3.57444 6.61558 2.75748 -24.51715 -12.19332 -2.30966 -11.26937 -1.51537 9.00874 21.46564 4.23737 -12.50925 0.66097 -2.6105
-2.96282 0.97495 0.07622 522.31113 0 -12.57062 -17.77112 -9.5061 -12.59335 -69.77562 -16.14241 -6.0501 66.91546 -1.71794 18.09956 14.59809 81.19597 -0.47683 -8.64741 74.57264 39.45349 -0.5971 14.82592 -88.97073 -8.14979 6.21267 3.65624 7.06695 3.3926 -26.28181 -11.96026 -2.3795 -10.7903 -1.36174 9.17054 21.14477 4.53425 -12.98281 0.4173 -2.90281
-2.95762 0.97441 0.07361 522.77485 0 -12.45256 -17.85924 -9.6532 -14.27455 -69.94425 -18.08929 -6.05712 67.83503 -1.07829 18.90355 14.78802 81.36147 -0.64012 -8.9504 74.73639 40.15791 0.25031 14.31362 -88.746 -7.88096 5.83617 4.28746 7.55958 2.49572 -29.70328 -11.74631 -2.46388 -10.66232 -1.06521 9.27871 20.70874 4.50871 -13.24222 0.6639 -2.99069
